<?xml version="1.0" encoding="UTF-8" standalone="no"?>
<!-- Created with Inkscape (http://www.inkscape.org/) -->

<svg
   version="1.1"
   id="svg2"
   width="1066.6667"
   height="1066.6667"
   viewBox="0 0 1066.6667 1066.6667"
   sodipodi:docname="AIxVC_LogoFA_RGB.ai"
   xmlns:inkscape="http://www.inkscape.org/namespaces/inkscape"
   xmlns:sodipodi="http://sodipodi.sourceforge.net/DTD/sodipodi-0.dtd"
   xmlns="http://www.w3.org/2000/svg"
   xmlns:svg="http://www.w3.org/2000/svg">
  <defs
     id="defs6">
    <clipPath
       clipPathUnits="userSpaceOnUse"
       id="clipPath18">
      <path
         d="M 0,800 H 800 V 0 H 0 Z"
         id="path16" />
    </clipPath>
  </defs>
  <sodipodi:namedview
     id="namedview4"
     pagecolor="#ffffff"
     bordercolor="#000000"
     borderopacity="0.25"
     inkscape:showpageshadow="2"
     inkscape:pageopacity="0.0"
     inkscape:pagecheckerboard="0"
     inkscape:deskcolor="#d1d1d1" />
  <g
     id="g8"
     inkscape:groupmode="layer"
     inkscape:label="AIxVC_LogoFA_RGB"
     transform="matrix(1.3333333,0,0,-1.3333333,0,1066.6667)">
    <path
       d="M 0,0 H 800 V 800 H 0 Z"
       style="fill:#000000;fill-opacity:1;fill-rule:nonzero;stroke:none"
       id="path10" />
    <g
       id="g12">
      <g
         id="g14"
         clip-path="url(#clipPath18)">
        <g
           id="g20"
           transform="translate(129.9059,425.6992)">
          <path
             d="m 0,0 c -1.932,-1.934 -2.901,-4.235 -2.901,-6.9 v -8.999 h 58.202 v 31.2 c 0,2.666 -0.967,4.931 -2.901,6.801 -1.932,1.863 -4.232,2.798 -6.9,2.798 H 24.9 c -2.665,0 -4.966,-0.935 -6.9,-2.798 -1.932,-1.87 -2.901,-4.135 -2.901,-6.801 V 6.1 c 0,-2.133 -1.066,-3.199 -3.199,-3.199 h -5 C 4.235,2.901 1.934,1.932 0,0 m 55.4,26.5 c 1.935,-1.868 4.235,-2.799 6.901,-2.799 H 64.9 c 2.668,0 4.935,-0.97 6.801,-2.9 1.868,-1.935 2.798,-4.235 2.798,-6.901 V -92.499 c 0,-2.134 -1.065,-3.2 -3.199,-3.2 H 58.5 c -2.131,0 -3.199,1.066 -3.199,3.2 V -35.3 H -2.901 v -57.199 c 0,-2.134 -1.066,-3.2 -3.199,-3.2 h -13.001 c -2.13,0 -3.2,1.066 -3.2,3.2 v 92 c 0,2.265 1.07,3.4 3.2,3.4 h 6.601 c 2.668,0 4.935,0.93 6.799,2.8 1.87,1.864 2.8,4.131 2.8,6.799 v 6.4 c 0,2.267 1.135,3.401 3.4,3.401 h 6.2 c 2.67,0 4.97,0.931 6.9,2.799 1.935,1.866 2.901,4.133 2.901,6.8 v 9.201 c 0,2.132 1.068,3.2 3.2,3.2 h 29.6 c 2.134,0 3.2,-1.068 3.2,-3.2 v -7.8 c 0,-2.67 0.968,-4.935 2.9,-6.801"
             style="fill:#dfff55;fill-opacity:1;fill-rule:nonzero;stroke:none"
             id="path22" />
        </g>
        <g
           id="g24"
           transform="translate(326.4033,346.1985)">
          <path
             d="m 0,0 v -12.999 c 0,-2.134 -1.07,-3.2 -3.2,-3.2 h -31.001 c -2.133,0 -3.199,1.066 -3.199,3.2 v 9.201 c 0,2.666 -0.969,4.93 -2.901,6.798 -1.934,1.866 -4.235,2.801 -6.9,2.801 h -2.6 c -2.668,0 -4.934,-0.935 -6.8,-2.801 -1.868,-1.868 -2.799,-4.132 -2.799,-6.798 v -9.201 c 0,-2.134 -1.135,-3.2 -3.401,-3.2 h -30.8 c -2.134,0 -3.199,1.066 -3.199,3.2 V 0 c 0,2.132 1.065,3.202 3.199,3.202 h 25.8 c 2.666,0 4.931,0.931 6.801,2.799 1.866,1.866 2.799,4.13 2.799,6.8 v 82.001 c 0,2.665 -0.933,4.93 -2.799,6.8 -1.87,1.864 -4.135,2.799 -6.801,2.799 h -25.8 c -2.134,0 -3.199,1.132 -3.199,3.399 v 12.802 c 0,2.131 1.065,3.199 3.199,3.199 h 30.8 c 2.266,0 3.401,-1.068 3.401,-3.199 v -9.201 c 0,-2.668 0.931,-4.935 2.799,-6.8 1.866,-1.868 4.132,-2.799 6.8,-2.799 h 2.6 c 2.665,0 4.966,0.931 6.9,2.799 1.932,1.865 2.901,4.132 2.901,6.8 v 9.201 c 0,2.131 1.066,3.199 3.199,3.199 H -3.2 c 2.13,0 3.2,-1.068 3.2,-3.199 L 0,107.8 c 0,-2.267 -1.07,-3.399 -3.2,-3.399 H -29 c -2.67,0 -4.97,-0.935 -6.9,-2.799 -1.935,-1.87 -2.901,-4.135 -2.901,-6.8 V 12.801 c 0,-2.67 0.966,-4.934 2.901,-6.8 1.93,-1.868 4.23,-2.799 6.9,-2.799 H -3.2 C -1.07,3.202 0,2.132 0,0"
             style="fill:#dfff55;fill-opacity:1;fill-rule:nonzero;stroke:none"
             id="path26" />
        </g>
        <g
           id="g28"
           transform="translate(410.9988,371.5996)">
          <path
             d="m 0,0 v 9.001 c 0,2.664 -0.968,4.964 -2.899,6.898 -1.934,1.933 -4.234,2.901 -6.9,2.901 h -2.599 c -2.67,0 -4.97,-0.968 -6.901,-2.901 -1.934,-1.934 -2.9,-4.234 -2.9,-6.898 V 0 c 0,-2.269 -1.068,-3.399 -3.2,-3.399 H -30.4 c -2.668,0 -4.968,-0.935 -6.899,-2.801 -1.934,-1.868 -2.9,-4.135 -2.9,-6.801 v -6.25 c 0,-2.134 -1.068,-3.2 -3.2,-3.2 H -56.2 c -2.134,0 -3.2,1.066 -3.2,3.2 v 12.652 c 0,2.13 1.066,3.2 3.2,3.2 h 6.401 c 2.666,0 4.966,0.964 6.899,2.898 1.932,1.933 2.9,4.233 2.9,6.901 v 6.399 c 0,2.132 1.066,3.2 3.2,3.2 h 6.4 c 2.666,0 4.932,0.966 6.8,2.901 1.866,1.932 2.801,4.232 2.801,6.9 v 5.4 c 0,2.666 -0.935,4.931 -2.801,6.801 -1.868,1.866 -4.134,2.799 -6.8,2.799 h -6.4 c -2.134,0 -3.2,1.066 -3.2,3.199 v 6.602 c 0,2.665 -0.968,4.93 -2.9,6.798 -1.933,1.866 -4.233,2.801 -6.899,2.801 H -56.2 c -2.134,0 -3.2,1.066 -3.2,3.2 v 12.652 c 0,2.131 1.066,3.199 3.2,3.199 h 12.801 c 2.132,0 3.2,-1.068 3.2,-3.199 v -6.253 c 0,-2.667 0.966,-4.932 2.9,-6.798 1.931,-1.87 4.231,-2.801 6.899,-2.801 h 5.001 c 2.132,0 3.2,-1.068 3.2,-3.2 v -9.2 c 0,-2.668 0.966,-4.935 2.9,-6.801 1.931,-1.868 4.231,-2.799 6.901,-2.799 h 2.599 c 2.666,0 4.966,0.931 6.9,2.799 C -0.968,42.865 0,45.132 0,47.8 V 57 c 0,2.132 1.066,3.2 3.202,3.2 h 4.999 c 2.666,0 4.966,0.931 6.9,2.801 1.931,1.866 2.899,4.131 2.899,6.798 v 6.253 c 0,2.131 1.066,3.199 3.202,3.199 h 12.999 c 2.131,0 3.199,-1.068 3.199,-3.199 V 63.4 c 0,-2.134 -1.068,-3.2 -3.199,-3.2 h -6.6 c -2.67,0 -4.934,-0.935 -6.8,-2.801 C 18.933,55.531 18,53.266 18,50.601 V 43.999 C 18,41.866 16.865,40.8 14.601,40.8 h -6.2 C 5.733,40.8 3.433,39.867 1.5,38.001 -0.434,36.131 -1.398,33.866 -1.398,31.2 v -5.4 c 0,-2.668 0.964,-4.968 2.898,-6.9 1.933,-1.935 4.233,-2.901 6.901,-2.901 h 6.2 c 2.264,0 3.399,-1.068 3.399,-3.2 V 6.4 c 0,-2.668 0.933,-4.968 2.801,-6.901 1.866,-1.934 4.13,-2.898 6.8,-2.898 h 6.6 c 2.131,0 3.199,-1.07 3.199,-3.2 v -12.652 c 0,-2.134 -1.068,-3.2 -3.199,-3.2 H 21.202 c -2.136,0 -3.202,1.066 -3.202,3.2 v 6.25 c 0,2.666 -0.968,4.933 -2.899,6.801 -1.934,1.866 -4.234,2.801 -6.9,2.801 H 3.202 C 1.066,-3.399 0,-2.269 0,0"
             style="fill:#dfff55;fill-opacity:1;fill-rule:nonzero;stroke:none"
             id="path30" />
        </g>
        <g
           id="g32"
           transform="translate(495.5964,333.1998)">
          <path
             d="m 0,0 v 7.8 c 0,2.666 -0.968,4.966 -2.901,6.9 -1.934,1.931 -4.234,2.899 -6.9,2.899 H -12.4 c -2.668,0 -4.935,0.933 -6.801,2.801 -1.868,1.866 -2.799,4.131 -2.799,6.8 v 106.4 c 0,2.132 1.066,3.2 3.2,3.2 h 12.799 c 2.132,0 3.2,-1.068 3.2,-3.2 V 25.8 c 0,-2.67 0.966,-4.935 2.901,-6.801 1.932,-1.868 4.232,-2.798 6.9,-2.798 h 20.599 c 2.666,0 4.966,0.964 6.901,2.898 1.932,1.932 2.9,4.233 2.9,6.901 v 9.001 c 0,2.129 1.066,3.199 3.2,3.199 h 4.999 c 2.666,0 4.966,0.964 6.901,2.899 1.932,1.932 2.9,4.232 2.9,6.9 V 133.6 c 0,2.132 1.066,3.2 3.2,3.2 h 13.001 c 2.13,0 3.2,-1.068 3.2,-3.2 v -92 c 0,-2.134 -1.07,-3.2 -3.2,-3.2 L 65,38.4 c -2.668,0 -4.935,-0.968 -6.799,-2.901 -1.87,-1.934 -2.801,-4.234 -2.801,-6.9 v -6.4 c 0,-2.134 -1.134,-3.2 -3.399,-3.2 h -6.2 c -2.67,0 -4.97,-0.968 -6.9,-2.9 C 36.966,14.164 36,11.866 36,9.201 V 0 c 0,-2.134 -1.068,-3.2 -3.2,-3.2 H 3.2 C 1.066,-3.2 0,-2.134 0,0"
             style="fill:#dfff55;fill-opacity:1;fill-rule:nonzero;stroke:none"
             id="path34" />
        </g>
        <g
           id="g36"
           transform="translate(617.5944,459.0001)">
          <path
             d="M 0,0 V 7.8 C 0,9.932 1.066,11 3.2,11 h 40.002 c 8.664,0 16.098,-3.1 22.299,-9.3 6.2,-6.2 9.3,-13.635 9.3,-22.299 V -33.6 H 55.4 V -8.401 H 7 c -2.668,0 -4.968,-0.935 -6.9,-2.798 -1.935,-1.87 -2.901,-4.135 -2.901,-6.801 v -91.6 H 55.4 v 25.2 h 19.401 v -13.001 c 0,-8.669 -3.1,-16.099 -9.3,-22.299 C 59.3,-125.9 51.866,-129 43.202,-129 H 9.4 c -8.669,0 -16.068,3.1 -22.199,9.3 -6.136,6.2 -9.201,13.63 -9.201,22.299 V -19.4 c 0,2.665 0.931,4.966 2.799,6.9 1.866,1.93 4.133,2.901 6.801,2.901 h 2.599 c 2.666,0 4.966,0.93 6.9,2.798 C -0.968,-4.935 0,-2.67 0,0"
             style="fill:#dfff55;fill-opacity:1;fill-rule:nonzero;stroke:none"
             id="path38" />
        </g>
      </g>
    </g>
  </g>
</svg>
